<svg xmlns="http://www.w3.org/2000/svg" xmlns:xlink="http://www.w3.org/1999/xlink" id="Layer_1" data-name="Layer 1" viewBox="0 0 315 315"><defs><style>.cls-1{fill:none}.cls-2{clip-path:url(#clip-path)}.cls-3{fill:#36c6f4}.cls-4{fill:#f3f3f3}</style><clipPath id="clip-path"><rect width="272.22" height="272.22" x="21.39" y="21.39" class="cls-1"/></clipPath></defs><g class="cls-2"><path d="M157.5,293.61A136.11,136.11,0,1,0,21.39,157.5,136.11,136.11,0,0,0,157.5,293.61" class="cls-3"/><path d="M157.5,274.17A116.67,116.67,0,1,0,40.83,157.5,116.68,116.68,0,0,0,157.5,274.17" class="cls-4"/><path d="M157.5,247.92A90.42,90.42,0,1,0,67.08,157.5a90.42,90.42,0,0,0,90.42,90.42" class="cls-3"/><path d="M157.5,223.42A65.92,65.92,0,1,0,91.58,157.5a65.92,65.92,0,0,0,65.92,65.92" class="cls-4"/><path d="M157.5,193.6a36.1,36.1,0,1,0-36.1-36.1,36.1,36.1,0,0,0,36.1,36.1" class="cls-3"/></g></svg>