<svg xmlns="http://www.w3.org/2000/svg" viewBox="0 0 100 100"><defs><style>.cls-1{fill:#046b99}.cls-2{fill:#1c304a}.cls-3{fill:#00cfff}.cls-4{fill:#b3efff}</style></defs><g id="Logo"><rect width="6.52" height="6.52" x="35.87" y="77.17" class="cls-1" rx="3.26"/><rect width="10.87" height="15.21" x="11.97" y="42.39" class="cls-1" rx="5.43"/><rect width="8.69" height="8.69" x="42.39" y="11.97" class="cls-2" rx="4.35"/><rect width="8.69" height="6.52" x="55.43" y="11.97" class="cls-1" rx="3.26"/><rect width="6.52" height="8.69" x="66.3" y="16.31" class="cls-3" rx="3.26"/><rect width="6.52" height="4.35" x="51.09" y="68.47" class="cls-1" rx="2.17"/><rect width="13.04" height="13.04" x="74.99" y="35.87" class="cls-3" rx="6.52"/><rect width="15.21" height="8.69" x="72.82" y="55.43" class="cls-2" rx="4.35"/><rect width="8.69" height="8.69" x="38.05" y="40.22" class="cls-4" rx="4.35"/><rect width="8.69" height="6.52" x="72.82" y="27.18" class="cls-4" rx="3.26"/><rect width="4.35" height="4.35" x="55.43" y="57.61" class="cls-2" rx="2.17"/><rect width="2.17" height="4.35" x="51.09" y="46.74" class="cls-3" rx="1.09"/><rect width="10.87" height="10.87" x="48.91" y="33.7" class="cls-2" rx="5.43"/><rect width="10.87" height="10.87" x="27.18" y="16.31" class="cls-1" rx="4.35"/><rect width="13.04" height="8.69" x="31.53" y="29.35" class="cls-3" rx="4.35"/><rect width="13.04" height="7.45" x="46.74" y="21.9" class="cls-4" rx="3.73"/><rect width="8.69" height="8.69" x="29.35" y="55.43" class="cls-4" rx="4.35"/><rect width="15.21" height="6.52" x="29.35" y="68.47" class="cls-3" rx="3.26"/><rect width="10.87" height="13.04" x="42.39" y="53.26" class="cls-1" rx="5.43"/><rect width="10.87" height="8.69" x="59.78" y="61.95" class="cls-3" rx="4.35"/><rect width="4.35" height="10.87" x="74.99" y="66.3" class="cls-1" rx="2.17"/><rect width="8.69" height="13.04" x="61.95" y="29.35" class="cls-1" rx="4.35"/><rect width="15.21" height="9.42" x="57.61" y="46.74" class="cls-4" rx="4.71"/><rect width="6.52" height="13.04" x="27.18" y="40.22" class="cls-2" rx="3.26"/><rect width="8.69" height="6.52" x="64.13" y="74.99" class="cls-2" rx="3.26"/><rect width="6.52" height="6.52" x="16.31" y="31.53" class="cls-2" rx="3.26"/><rect width="13.04" height="13.04" x="46.52" y="74.99" class="cls-4" rx="6.52"/><rect width="6.52" height="8.69" x="18.49" y="61.95" class="cls-2" rx="3.26"/></g></svg>