<svg xmlns="http://www.w3.org/2000/svg" id="Logo" viewBox="0 0 414 372"><defs><style>.cls-1{fill:#046b99}.cls-2{fill:#f1f1f1}.cls-3{fill:#00cfff}.cls-4{fill:#b3efff}</style></defs><rect width="31.75" height="31.75" x="137.99" y="317.92" class="cls-1" rx="15.88"/><rect width="52.92" height="74.09" x="21.57" y="148.58" class="cls-1" rx="26.46"/><rect width="42.33" height="42.33" x="169.74" y=".41" class="cls-2" rx="21.17"/><rect width="42.33" height="31.75" x="233.24" y=".41" class="cls-1" rx="15.88"/><rect width="31.75" height="42.33" x="286.16" y="21.58" class="cls-3" rx="15.88"/><rect width="31.75" height="21.17" x="212.08" y="275.59" class="cls-1" rx="10.58"/><rect width="63.5" height="63.5" x="328.5" y="116.83" class="cls-3" rx="31.75"/><rect width="74.09" height="42.33" x="317.91" y="212.08" class="cls-2" rx="21.17"/><rect width="42.33" height="42.33" x="148.57" y="138" class="cls-4" rx="21.17"/><rect width="42.33" height="31.75" x="317.91" y="74.5" class="cls-4" rx="15.88"/><rect width="21.17" height="21.17" x="233.24" y="222.67" class="cls-2" rx="10.58"/><rect width="10.58" height="21.17" x="212.08" y="169.75" class="cls-3" rx="5.29"/><rect width="52.92" height="52.92" x="201.49" y="106.25" class="cls-2" rx="26.46"/><rect width="52.92" height="52.92" x="95.66" y="21.58" class="cls-1" rx="21.17"/><rect width="63.5" height="42.33" x="116.82" y="85.08" class="cls-3" rx="21.17"/><rect width="63.5" height="36.29" x="190.91" y="48.79" class="cls-4" rx="18.14"/><rect width="42.33" height="42.33" x="106.24" y="212.08" class="cls-4" rx="21.17"/><rect width="74.09" height="31.75" x="106.24" y="275.59" class="cls-3" rx="15.88"/><rect width="52.92" height="63.5" x="169.74" y="201.5" class="cls-1" rx="26.46"/><rect width="52.92" height="42.33" x="254.41" y="243.83" class="cls-3" rx="21.17"/><rect width="21.17" height="52.92" x="328.5" y="265" class="cls-1" rx="10.58"/><rect width="42.33" height="63.5" x="265" y="85.08" class="cls-1" rx="21.17"/><rect width="74.09" height="45.86" x="243.83" y="169.75" class="cls-4" rx="22.93"/><rect width="31.75" height="63.5" x="95.66" y="138" class="cls-2" rx="15.88"/><rect width="42.33" height="31.75" x="275.58" y="307.34" class="cls-2" rx="15.88"/><rect width="31.75" height="31.75" x="42.74" y="95.66" class="cls-2" rx="15.88"/><rect width="63.5" height="63.5" x="189.85" y="307.34" class="cls-4" rx="31.75"/><rect width="31.75" height="42.33" x="53.32" y="243.83" class="cls-2" rx="15.88"/></svg>