<svg xmlns="http://www.w3.org/2000/svg" xmlns:xlink="http://www.w3.org/1999/xlink" id="Layer_1" data-name="Layer 1" viewBox="0 0 315 315"><defs><style>.cls-1,.cls-3,.cls-6,.cls-7,.cls-8,.cls-9{fill:none}.cls-2{clip-path:url(#clip-path)}.cls-3,.cls-7,.cls-9{stroke:#36c6f4}.cls-3{stroke-miterlimit:10;stroke-width:8px}.cls-4{fill:#f3f3f3}.cls-5{fill:#00cfff}.cls-6{stroke:#f2f2f2}.cls-6,.cls-7{stroke-linecap:round;stroke-linejoin:round;stroke-width:11.07px}.cls-8{stroke:#f3f3f3}.cls-8,.cls-9{stroke-width:10px}.cls-10{fill:#36c6f4}</style><clipPath id="clip-path"><rect width="267" height="280.5" x="24" y="20.13" class="cls-1"/></clipPath></defs><g class="cls-2"><path d="M112.6,69.64a45.5,45.5,0,1,1,45.5,45.49A45.51,45.51,0,0,1,112.6,69.64Z" class="cls-3"/><path d="M151.57,87.05h10.27v9.58H151.57Zm-12.2-27.76a22.23,22.23,0,0,1,1.27-7.67,16.3,16.3,0,0,1,3.68-5.91,16.53,16.53,0,0,1,5.83-3.79,20.54,20.54,0,0,1,7.63-1.34,20.12,20.12,0,0,1,6.55,1,15.93,15.93,0,0,1,5.3,3,13.94,13.94,0,0,1,3.56,4.87,16,16,0,0,1,1.3,6.6,16.72,16.72,0,0,1-.57,4.64,12.31,12.31,0,0,1-1.53,3.37,13.69,13.69,0,0,1-2.19,2.53l-2.45,2.19c-1,.81-1.87,1.61-2.69,2.38a13.47,13.47,0,0,0-2.14,2.56,11.14,11.14,0,0,0-1.42,3.34,18.52,18.52,0,0,0-.5,4.68h-8.28a40.19,40.19,0,0,1,.34-5.72,16,16,0,0,1,1.12-4.1,12.54,12.54,0,0,1,1.87-3.1,20.7,20.7,0,0,1,2.65-2.65c.81-.72,1.59-1.38,2.34-2a14.2,14.2,0,0,0,2-2,8.64,8.64,0,0,0,1.38-2.49,9.79,9.79,0,0,0,.5-3.3,9,9,0,0,0-.8-3.94,8.07,8.07,0,0,0-2-2.65,7.69,7.69,0,0,0-2.45-1.46,7,7,0,0,0-2.31-.46q-4.75,0-7,3.11a13.82,13.82,0,0,0-2.27,8.32Z" class="cls-4"/><path d="M120,252.63a48,48,0,1,1-48-48,48,48,0,0,1,48,48" class="cls-5"/></g><polyline points="48.99 259.93 67.23 277.62 96.1 229.53" class="cls-5"/><polyline points="48.99 259.93 67.23 277.62 96.1 229.53" class="cls-6"/><g class="cls-2"><path d="M291,252.63a48,48,0,1,1-48-48,48,48,0,0,1,48,48" class="cls-4"/></g><line x1="222" x2="264" y1="231.63" y2="273.63" class="cls-7"/><line x1="222" x2="264" y1="273.64" y2="231.64" class="cls-7"/><g class="cls-2"><path d="M243.71,184.29s.49-45.06-43.91-69.66" class="cls-8"/><polygon points="243.6 194.63 228.02 177.51 259.55 177.85 243.6 194.63" class="cls-4"/><path d="M73.44,184.29s-.49-45.06,43.91-69.66" class="cls-9"/><polygon points="73.55 194.63 89.13 177.51 57.6 177.85 73.55 194.63" class="cls-10"/></g></svg>